<svg xmlns="http://www.w3.org/2000/svg" style="width:100vw;height:100vh" viewBox="100 400 1300 1150">
  <defs>
    <linearGradient id="a">
      <stop offset="15%" stop-color="#b6b69f"/>
      <stop offset="85%" stop-color="#b6b69f"/>
    </linearGradient>
    <linearGradient id="b">
      <stop offset="15%" stop-color="#A0A04F"/>
      <stop offset="85%" stop-color="#A0A04F"/>
    </linearGradient>
    <linearGradient id="i">
      <stop offset="15%" stop-color="#1f78b4"/>
      <stop offset="85%" stop-color="#b6b69f"/>
    </linearGradient>
    <linearGradient id="j">
      <stop offset="15%" stop-color="#054068"/>
      <stop offset="85%" stop-color="#A0A04F"/>
    </linearGradient>
    <linearGradient id="e">
      <stop offset="15%" stop-color="#1f78b4"/>
      <stop offset="85%" stop-color="#33a02c"/>
    </linearGradient>
    <linearGradient id="f">
      <stop offset="15%" stop-color="#054068"/>
      <stop offset="85%" stop-color="#115A0C"/>
    </linearGradient>
    <linearGradient id="c">
      <stop offset="15%" stop-color="#1f78b4"/>
      <stop offset="85%" stop-color="#fdbf6f"/>
    </linearGradient>
    <linearGradient id="d">
      <stop offset="15%" stop-color="#054068"/>
      <stop offset="85%" stop-color="#FF9500"/>
    </linearGradient>
    <linearGradient id="m">
      <stop offset="15%" stop-color="#33a02c"/>
      <stop offset="85%" stop-color="#33a02c"/>
    </linearGradient>
    <linearGradient id="n">
      <stop offset="15%" stop-color="#115A0C"/>
      <stop offset="85%" stop-color="#115A0C"/>
    </linearGradient>
    <linearGradient id="o">
      <stop offset="15%" stop-color="#fdbf6f"/>
      <stop offset="85%" stop-color="#b6b69f"/>
    </linearGradient>
    <linearGradient id="p">
      <stop offset="15%" stop-color="#FF9500"/>
      <stop offset="85%" stop-color="#A0A04F"/>
    </linearGradient>
    <linearGradient id="k">
      <stop offset="15%" stop-color="#fdbf6f"/>
      <stop offset="85%" stop-color="#e31a1c"/>
    </linearGradient>
    <linearGradient id="l">
      <stop offset="15%" stop-color="#FF9500"/>
      <stop offset="85%" stop-color="#970002"/>
    </linearGradient>
    <linearGradient id="g">
      <stop offset="15%" stop-color="#ff7f00"/>
      <stop offset="85%" stop-color="#fdbf6f"/>
    </linearGradient>
    <linearGradient id="h">
      <stop offset="15%" stop-color="#A84C00"/>
      <stop offset="85%" stop-color="#FF9500"/>
    </linearGradient>
  </defs>
  <svg style="width:100vw;height:100vh" xmlns="http://www.w3.org/2000/svg">
    <rect class="background" width="100%" height="100%" fill="#fff"/>
    <g class="alluvialDiagram">
      <g class="networkRoot">
        <g class="networkName">
          <text class="name" x="55" y="770" text-anchor="middle" font-size="10" dy="3" cursor="default" transform="translate(307 196)">
            1998
          </text>
        </g>
        <path class="streamline" fill="url(#a)" stroke="url(#b)" vector-effect="non-scaling-stroke" paint-order="stroke" opacity=".7" d="M110 743.86c159.5 0 159.5-1.03 319-1.03V560.11c-159.5 0-159.5-17.086-319-17.086zM110 190.842c159.5 0 159.5 15.205 319 15.205V105.1c-159.5 0-159.5-10.517-319-10.517z" cursor="pointer" transform="translate(307 196)"/>
        <path class="streamline" fill="url(#c)" stroke="url(#d)" vector-effect="non-scaling-stroke" paint-order="stroke" opacity=".7" d="M110 526.914c159.5 0 159.5-37.661 319-37.661v-25.6c-159.5 0-159.5 39.69-319 39.69z" cursor="pointer" transform="translate(307 196)"/>
        <path class="streamline" fill="url(#a)" stroke="url(#b)" vector-effect="non-scaling-stroke" paint-order="stroke" opacity=".7" d="M110 489.04c159.5 0 159.5 48.625 319 48.625v-20.068c-159.5 0-159.5-47.583-319-47.583zM110 456.545c159.5 0 159.5-1.354 319-1.354v-12.142c-159.5 0-159.5-1.396-319-1.396z" cursor="pointer" transform="translate(307 196)"/>
        <path class="streamline" fill="url(#a)" stroke="url(#b)" vector-effect="non-scaling-stroke" paint-order="stroke" opacity=".7" d="M110 413.71c159.5 0 159.5 103.887 319 103.887v-12.642c-159.5 0-159.5-101.807-319-101.807z" cursor="pointer" transform="translate(307 196)"/>
        <path class="streamline" fill="url(#a)" stroke="url(#b)" vector-effect="non-scaling-stroke" paint-order="stroke" opacity=".7" d="M110 432.763c159.5 0 159.5.842 319 .842v-11.3c-159.5 0-159.5-.287-319-.287zM110 377.175c159.5 0 159.5 36.799 319 36.799v-11.429c-159.5 0-159.5-34.155-319-34.155z" cursor="pointer" transform="translate(307 196)"/>
        <path class="streamline" fill="url(#a)" stroke="url(#b)" vector-effect="non-scaling-stroke" paint-order="stroke" opacity=".7" d="M110 393.935c159.5 0 159.5-179.973 319-179.973v-7.878c-159.5 0-159.5 179.547-319 179.547z" cursor="pointer" transform="translate(307 196)"/>
        <path class="streamline" fill="url(#a)" stroke="url(#b)" vector-effect="non-scaling-stroke" paint-order="stroke" opacity=".7" d="M110 343.426c159.5 0 159.5 7.444 319 7.444v-5.836c-159.5 0-159.5-8.1-319-8.1zM110 94.584c159.5 0 159.5-22.472 319-22.472v-5.71c-159.5 0-159.5 21.754-319 21.754zM110 469.942c159.5 0 159.5-75.859 319-75.859v-6.389c-159.5 0-159.5 77.338-319 77.338z" cursor="pointer" transform="translate(307 196)"/>
        <path class="streamline" fill="url(#a)" stroke="url(#b)" vector-effect="non-scaling-stroke" paint-order="stroke" opacity=".7" d="M110 359.63c159.5 0 159.5 199.598 319 199.598v-5.988c-159.5 0-159.5-198.627-319-198.627z" cursor="pointer" transform="translate(307 196)"/>
        <path class="streamline" fill="url(#e)" stroke="url(#f)" vector-effect="non-scaling-stroke" paint-order="stroke" opacity=".7" d="M110 503.344c159.5 0 159.5-124.689 319-124.689v-5.413c-159.5 0-159.5 125.124-319 125.124z" cursor="pointer" transform="translate(307 196)"/>
        <path class="streamline" fill="url(#a)" stroke="url(#b)" vector-effect="non-scaling-stroke" paint-order="stroke" opacity=".7" d="M110 328.687c159.5 0 159.5 35.613 319 35.613v-5.338c-159.5 0-159.5-34.888-319-34.888zM110 54.6c159.5 0 159.5-21.677 319-21.677v-4.637c-159.5 0-159.5 21.07-319 21.07zM110 314.433c159.5 0 159.5 22.128 319 22.128v-4.935c-159.5 0-159.5-21.633-319-21.633z" cursor="pointer" transform="translate(307 196)"/>
        <path class="streamline" fill="url(#g)" stroke="url(#h)" vector-effect="non-scaling-stroke" paint-order="stroke" opacity=".7" d="M110 539.578c159.5 0 159.5-46.704 319-46.704v-3.621c-159.5 0-159.5 46.305-319 46.305z" cursor="pointer" transform="translate(307 196)"/>
        <path class="streamline" fill="url(#a)" stroke="url(#b)" vector-effect="non-scaling-stroke" paint-order="stroke" opacity=".7" d="M110 301.587c159.5 0 159.5 21.302 319 21.302v-3.832c-159.5 0-159.5-20.732-319-20.732zM110 266.897c159.5 0 159.5 43.727 319 43.727v-3.332c-159.5 0-159.5-43.666-319-43.666z" cursor="pointer" transform="translate(307 196)"/>
        <path class="streamline" fill="url(#a)" stroke="url(#b)" vector-effect="non-scaling-stroke" paint-order="stroke" opacity=".7" d="M110 255.577c159.5 0 159.5 31.924 319 31.924v-2.995c-159.5 0-159.5-31.906-319-31.906zM110 233.523c159.5 0 159.5 20.66 319 20.66V251.6c-159.5 0-159.5-20.665-319-20.665z" cursor="pointer" transform="translate(307 196)"/>
        <path class="streamline" fill="url(#a)" stroke="url(#b)" vector-effect="non-scaling-stroke" paint-order="stroke" opacity=".7" d="M110 354.58c159.5 0 159.5-89.579 319-89.579v-2.566c-159.5 0-159.5 89.714-319 89.714zM110 543.024c159.5 0 159.5-3.125 319-3.125v-2.234c-159.5 0-159.5 2.77-319 2.77z" cursor="pointer" transform="translate(307 196)"/>
        <path class="streamline" fill="url(#a)" stroke="url(#b)" vector-effect="non-scaling-stroke" paint-order="stroke" opacity=".7" d="M110 277.024c159.5 0 159.5 227.79 319 227.79v-1.724c-159.5 0-159.5-228.18-319-228.18z" cursor="pointer" transform="translate(307 196)"/>
        <path class="streamline" fill="url(#a)" stroke="url(#b)" vector-effect="non-scaling-stroke" paint-order="stroke" opacity=".7" d="M110 288.416c159.5 0 159.5 9.14 319 9.14v-1.846c-159.5 0-159.5-9.125-319-9.125z" cursor="pointer" transform="translate(307 196)"/>
        <path class="streamline" fill="url(#a)" stroke="url(#b)" vector-effect="non-scaling-stroke" paint-order="stroke" opacity=".7" d="M110 324.074c159.5 0 159.5-49.323 319-49.323v-1.34c-159.5 0-159.5 49.233-319 49.233zM110 55.64c159.5 0 159.5 10.763 319 10.763v-1.05c-159.5 0-159.5-10.753-319-10.753z" cursor="pointer" transform="translate(307 196)"/>
        <g class="module" stroke="red" stroke-opacity="0" cursor="pointer">
          <path fill="#b6b69f" stroke="none" d="M307 735.589h110V946H307z"/>
          <path fill="#1f78b4" stroke="none" d="M307 735.578h110v.011H307z"/>
          <path fill="#ff7f00" stroke="none" d="M307 731.558h110v4.02H307z"/>
        </g>
        <g class="module" stroke="red" stroke-opacity="0" cursor="pointer">
          <path fill="#1f78b4" stroke="none" d="M307 693.711h110v29.847H307z"/>
        </g>
        <g class="module" stroke="red" stroke-opacity="0" cursor="pointer">
          <path fill="#b6b69f" stroke="none" d="M307 660.964h110v24.747H307z"/>
        </g>
        <g class="module" stroke="red" stroke-opacity="0" cursor="pointer">
          <path fill="#b6b69f" stroke="none" d="M307 637.419h110v15.545H307z"/>
        </g>
        <g class="module" stroke="red" stroke-opacity="0" cursor="pointer">
          <path fill="#b6b69f" stroke="none" d="M307 617.895h110v11.524H307z"/>
          <path fill="#ff7f00" stroke="none" d="M307 617.81h110v.086H307z"/>
        </g>
        <g class="module" stroke="red" stroke-opacity="0" cursor="pointer">
          <path fill="#b6b69f" stroke="none" d="M307 599.147h110v10.663H307z"/>
          <path fill="#1f78b4" stroke="none" d="M307 599.147h110v.001H307z"/>
          <path fill="#ff7f00" stroke="none" d="M307 599.076h110v.071H307z"/>
        </g>
        <g class="module" stroke="red" stroke-opacity="0" cursor="pointer">
          <path fill="#b6b69f" stroke="none" d="M307 581.631h110v9.445H307z"/>
        </g>
        <g class="module" stroke="red" stroke-opacity="0" cursor="pointer">
          <path fill="#b6b69f" stroke="none" d="M307 564.287h110v9.344H307z"/>
        </g>
        <g class="module" stroke="red" stroke-opacity="0" cursor="pointer">
          <path fill="#b6b69f" stroke="none" d="M307 548.144h110v8.143H307z"/>
        </g>
        <g class="module" stroke="red" stroke-opacity="0" cursor="pointer">
          <path fill="#b6b69f" stroke="none" d="M307 532.882h110v7.262H307z"/>
        </g>
        <g class="module" stroke="red" stroke-opacity="0" cursor="pointer">
          <path fill="#b6b69f" stroke="none" d="M307 518.591h110v6.291H307z"/>
          <path fill="#1f78b4" stroke="none" d="M307 518.578h110v.013H307z"/>
          <path fill="#ff7f00" stroke="none" d="M307 518.556h110v.022H307z"/>
        </g>
        <g class="module" stroke="red" stroke-opacity="0" cursor="pointer">
          <path fill="#b6b69f" stroke="none" d="M307 505.993h110v4.563H307z"/>
          <path fill="#1f78b4" stroke="none" d="M307 505.981h110v.011H307z"/>
        </g>
        <g class="module" stroke="red" stroke-opacity="0" cursor="pointer">
          <path fill="#b6b69f" stroke="none" d="M307 494.325h110v3.657H307z"/>
          <path fill="#ff7f00" stroke="none" d="M307 494.206h110v.119H307z"/>
        </g>
        <g class="module" stroke="red" stroke-opacity="0" cursor="pointer">
          <path fill="#b6b69f" stroke="none" d="M307 482.55h110v3.656H307z"/>
        </g>
        <g class="module" stroke="red" stroke-opacity="0" cursor="pointer">
          <path fill="#b6b69f" stroke="none" d="M307 470.909h110v3.641H307z"/>
        </g>
        <g class="module" stroke="red" stroke-opacity="0" cursor="pointer">
          <path fill="#b6b69f" stroke="none" d="M307 459.625h110v3.285H307z"/>
        </g>
        <g class="module" stroke="red" stroke-opacity="0" cursor="pointer">
          <path fill="#b6b69f" stroke="none" d="M307 448.6h110v3.025H307z"/>
        </g>
        <g class="module" stroke="red" stroke-opacity="0" cursor="pointer">
          <path fill="#b6b69f" stroke="none" d="M307 437.846h110v2.754H307z"/>
          <path fill="#1f78b4" stroke="none" d="M307 437.598h110v.248H307z"/>
        </g>
        <g class="module" stroke="red" stroke-opacity="0" cursor="pointer">
          <path fill="#b6b69f" stroke="none" d="M307 426.936h110v2.662H307z"/>
        </g>
        <g class="module" stroke="red" stroke-opacity="0" cursor="pointer">
          <path fill="#b6b69f" stroke="none" d="M307 284.124h110v110.812H307z"/>
          <path fill="#1f78b4" stroke="none" d="M307 284.075h110v.049H307z"/>
          <path fill="#ff7f00" stroke="none" d="M307 283.977h110v.098H307z"/>
        </g>
        <g class="module" stroke="red" stroke-opacity="0" cursor="pointer">
          <path fill="#b6b69f" stroke="none" d="M307 245.356h110v6.62H307z"/>
        </g>
        <g class="moduleName" cursor="default">
          <text text-anchor="end" class="name" y="642.779" font-size="10" transform="translate(307 196)">
            <tspan x="-20" dx="3" dy="-1.45em">J BIOL CHEM</tspan><tspan x="-20" dx="3" dy="1.2em">NATURE</tspan><tspan x="-20" dx="3" dy="1.2em">SCIENCE</tspan><tspan x="-20" dx="3" dy="1.2em">P NATL ACAD SCI USA</tspan>
          </text>
        </g>
        <g class="moduleName" cursor="default">
          <text text-anchor="end" class="name" y="512.634" font-size="10" transform="translate(307 196)">
            <tspan x="-20" dx="3" dy="-.25em">J NEUROSCI</tspan><tspan x="-20" dx="3" dy="1.2em">NEUROLOGY</tspan>
          </text>
        </g>
        <g class="moduleName" cursor="default">
          <text text-anchor="end" class="name" y="477.338" font-size="10" transform="translate(307 196)">
            <tspan x="-20" dx="3" dy=".35em">NEW ENGL J MED</tspan>
          </text>
        </g>
        <g class="moduleName" cursor="default">
          <text text-anchor="end" class="name" y="449.192" font-size="10" transform="translate(307 196)">
            <tspan x="-20" dx="3" dy=".35em">J GEOPHYS RES</tspan>
          </text>
        </g>
        <g class="moduleName" cursor="default">
          <text text-anchor="end" class="name" y="427.614" font-size="10" transform="translate(307 196)">
            <tspan x="-20" dx="3" dy=".35em">ECOLOGY</tspan>
          </text>
        </g>
        <g class="moduleName" cursor="default">
          <text text-anchor="end" class="name" y="408.443" font-size="10" transform="translate(307 196)">
            <tspan x="-20" dx="3" dy=".35em">CIRCULATION</tspan>
          </text>
        </g>
        <g class="moduleName" cursor="default">
          <text text-anchor="end" class="name" y="390.353" font-size="10" transform="translate(307 196)">
            <tspan x="-20" dx="3" dy=".35em">ASTROPHYS J</tspan>
          </text>
        </g>
        <g class="moduleName" cursor="default">
          <text text-anchor="end" class="name" y="372.959" font-size="10" transform="translate(307 196)">
            <tspan x="-20" dx="3" dy=".35em">J CLIN ONCOL</tspan>
          </text>
        </g>
        <g class="moduleName" cursor="default">
          <text text-anchor="end" class="name" y="356.216" font-size="10" transform="translate(307 196)">
            <tspan x="-20" dx="3" dy=".35em">J BACTERIOL</tspan>
          </text>
        </g>
        <g class="moduleName" cursor="default">
          <text text-anchor="end" class="name" y="340.513" font-size="10" transform="translate(307 196)">
            <tspan x="-20" dx="3" dy=".35em">PLANT CELL</tspan>
          </text>
        </g>
        <g class="moduleName" cursor="default">
          <text text-anchor="end" class="name" y="325.719" font-size="10" transform="translate(307 196)">
            <tspan x="-20" dx="3" dy=".35em">AM J PSYCHIAT</tspan>
          </text>
        </g>
        <g class="moduleName" cursor="default">
          <text text-anchor="end" class="name" y="312.269" font-size="10" transform="translate(307 196)">
            <tspan x="-20" dx="3" dy=".35em">GASTROENTEROLOGY</tspan>
          </text>
        </g>
        <g class="moduleName" cursor="default">
          <text text-anchor="end" class="name" y="300.094" font-size="10" transform="translate(307 196)">
            <tspan x="-20" dx="3" dy=".35em">AM J RESP CRIT CARE</tspan>
          </text>
        </g>
        <g class="moduleName" cursor="default">
          <text text-anchor="end" class="name" y="288.378" font-size="10" transform="translate(307 196)">
            <tspan x="-20" dx="3" dy=".35em">ENVIRON SCI TECHNOL</tspan>
          </text>
        </g>
        <g class="moduleName" cursor="default">
          <text text-anchor="end" class="name" y="276.73" font-size="10" transform="translate(307 196)">
            <tspan x="-20" dx="3" dy=".35em">J CLIN ENDOCR METAB</tspan>
          </text>
        </g>
        <g class="moduleName" cursor="default">
          <text text-anchor="end" class="name" y="265.267" font-size="10" transform="translate(307 196)">
            <tspan x="-20" dx="3" dy=".35em">KIDNEY INT</tspan>
          </text>
        </g>
        <g class="moduleName" cursor="default">
          <text text-anchor="end" class="name" y="254.113" font-size="10" transform="translate(307 196)">
            <tspan x="-20" dx="3" dy=".35em">AM J OBSTET GYNECOL</tspan>
          </text>
        </g>
        <g class="moduleName" cursor="default">
          <text text-anchor="end" class="name" y="243.099" font-size="10" transform="translate(307 196)">
            <tspan x="-20" dx="3" dy=".35em">RADIOLOGY</tspan>
          </text>
        </g>
        <g class="moduleName" cursor="default">
          <text text-anchor="end" class="name" y="232.267" font-size="10" transform="translate(307 196)">
            <tspan x="-20" dx="3" dy=".35em">ANN SURG</tspan>
          </text>
        </g>
        <g class="moduleName" cursor="default">
          <text text-anchor="end" class="name" y="143.456" font-size="10" transform="translate(307 196)">
            <tspan x="-20" dx="3" dy=".35em">Physical sciences</tspan>
          </text>
        </g>
        <g class="moduleName" cursor="default">
          <text text-anchor="end" class="name" y="52.666" font-size="10" transform="translate(307 196)">
            <tspan x="-20" dx="3" dy=".35em">Social sciences</tspan>
          </text>
        </g>
        <path class="streamline" fill="url(#i)" stroke="url(#j)" vector-effect="non-scaling-stroke" paint-order="stroke" opacity=".7" d="M110 498.366c159.5 0 159.5-133.19 319-133.19v-.875c-159.5 0-159.5 133.41-319 133.41z" cursor="pointer" transform="translate(307 196)"/>
      </g>
      <g class="networkRoot">
        <g class="networkName">
          <text class="name" x="484" y="770" text-anchor="middle" font-size="10" dy="3" cursor="default" transform="translate(307 196)">
            2001
          </text>
        </g>
        <path class="streamline" fill="url(#a)" stroke="url(#b)" vector-effect="non-scaling-stroke" paint-order="stroke" opacity=".7" d="M539 744.611c159.5 0 159.5-10.52 319-10.52V593.278c-159.5 0-159.5-37.757-319-37.757zM539 214.631c159.5 0 159.5-13.477 319-13.477V87.818c-159.5 0-159.5 17.262-319 17.262zM539 542.864c159.5 0 159.5 35.658 319 35.658v-42.16c-159.5 0-159.5-32.955-319-32.955z" cursor="pointer" transform="translate(307 196)"/>
        <path class="streamline" fill="url(#k)" stroke="url(#l)" vector-effect="non-scaling-stroke" paint-order="stroke" opacity=".7" d="M539 491.822c159.5 0 159.5 33.982 319 33.982v-24.048c-159.5 0-159.5-37.48-319-37.48z" cursor="pointer" transform="translate(307 196)"/>
        <path class="streamline" fill="url(#a)" stroke="url(#b)" vector-effect="non-scaling-stroke" paint-order="stroke" opacity=".7" d="M539 413.861c159.5 0 159.5 76.085 319 76.085v-14.57c-159.5 0-159.5-72.856-319-72.856z" cursor="pointer" transform="translate(307 196)"/>
        <path class="streamline" fill="url(#a)" stroke="url(#b)" vector-effect="non-scaling-stroke" paint-order="stroke" opacity=".7" d="M539 455.215c159.5 0 159.5-11.998 319-11.998v-11.343c-159.5 0-159.5 11.256-319 11.256z" cursor="pointer" transform="translate(307 196)"/>
        <path class="streamline" fill="url(#a)" stroke="url(#b)" vector-effect="non-scaling-stroke" paint-order="stroke" opacity=".7" d="M539 433.126c159.5 0 159.5 31.845 319 31.845v-12.149c-159.5 0-159.5-30.355-319-30.355zM539 394.14c159.5 0 159.5 24.694 319 24.694v-6.702c-159.5 0-159.5-24.443-319-24.443z" cursor="pointer" transform="translate(307 196)"/>
        <path class="streamline" fill="url(#m)" stroke="url(#n)" vector-effect="non-scaling-stroke" paint-order="stroke" opacity=".7" d="M539 379.646c159.5 0 159.5 6.849 319 6.849v-6.601c-159.5 0-159.5-6.652-319-6.652z" cursor="pointer" transform="translate(307 196)"/>
        <path class="streamline" fill="url(#a)" stroke="url(#b)" vector-effect="non-scaling-stroke" paint-order="stroke" opacity=".7" d="M539 364.303c159.5 0 159.5 38.85 319 38.85v-7.262c-159.5 0-159.5-36.915-319-36.915zM539 71.753c159.5 0 159.5 16.065 319 16.065v-6.104c-159.5 0-159.5-15.552-319-15.552zM539 350.71c159.5 0 159.5 20.24 319 20.24v-5.768c-159.5 0-159.5-20.134-319-20.134zM539 336.96c159.5 0 159.5 5.407 319 5.407v-5.133c-159.5 0-159.5-5.438-319-5.438zM539 33.013c159.5 0 159.5 14.24 319 14.24V42.2c-159.5 0-159.5-13.914-319-13.914zM539 322.982c159.5 0 159.5-18.763 319-18.763v-3.89c-159.5 0-159.5 18.714-319 18.714z" cursor="pointer" transform="translate(307 196)"/>
        <path class="streamline" fill="url(#a)" stroke="url(#b)" vector-effect="non-scaling-stroke" paint-order="stroke" opacity=".7" d="M539 310.672c159.5 0 159.5 5.38 319 5.38v-3.562c-159.5 0-159.5-5.178-319-5.178z" cursor="pointer" transform="translate(307 196)"/>
        <path class="streamline" fill="url(#a)" stroke="url(#b)" vector-effect="non-scaling-stroke" paint-order="stroke" opacity=".7" d="M539 265.138c159.5 0 159.5 63.413 319 63.413v-3.72c-159.5 0-159.5-62.401-319-62.401z" cursor="pointer" transform="translate(307 196)"/>
        <path class="streamline" fill="url(#a)" stroke="url(#b)" vector-effect="non-scaling-stroke" paint-order="stroke" opacity=".7" d="M539 287.294c159.5 0 159.5 4.452 319 4.452v-3.023c-159.5 0-159.5-4.217-319-4.217zM539 297.712c159.5 0 159.5 56.435 319 56.435v-3.35c-159.5 0-159.5-55.07-319-55.07zM539 275.858c159.5 0 159.5-18.343 319-18.343v-2.71c-159.5 0-159.5 18.719-319 18.719zM539 253.77c159.5 0 159.5-7.417 319-7.417v-2.301c-159.5 0-159.5 7.55-319 7.55z" cursor="pointer" transform="translate(307 196)"/>
        <path class="streamline" fill="url(#o)" stroke="url(#p)" vector-effect="non-scaling-stroke" paint-order="stroke" opacity=".7" d="M539 494.017c159.5 0 159.5 99.117 319 99.117v-1.562c-159.5 0-159.5-99.75-319-99.75z" cursor="pointer" transform="translate(307 196)"/>
        <path class="streamline" fill="url(#a)" stroke="url(#b)" vector-effect="non-scaling-stroke" paint-order="stroke" opacity=".7" d="M539 66.162c159.5 0 159.5-17.866 319-17.866v-1.043c-159.5 0-159.5 18.1-319 18.1z" cursor="pointer" transform="translate(307 196)"/>
        <g class="module" stroke="red" stroke-opacity="0" cursor="pointer">
          <path fill="#b6b69f" stroke="none" d="M736 748.046h110V946H736z"/>
          <path fill="#1f78b4" stroke="none" d="M736 747.815h110v.232H736z"/>
        </g>
        <g class="module" stroke="red" stroke-opacity="0" cursor="pointer">
          <path fill="#b6b69f" stroke="none" d="M736 699.056h110v40.758H736z"/>
          <path fill="#1f78b4" stroke="none" d="M736 699.048h110v.008H736z"/>
        </g>
        <g class="module" stroke="red" stroke-opacity="0" cursor="pointer">
          <path fill="#fdbf6f" stroke="none" d="M736 659.652h110v31.396H736z"/>
        </g>
        <g class="module" stroke="red" stroke-opacity="0" cursor="pointer">
          <path fill="#b6b69f" stroke="none" d="M736 638.433h110v13.219H736z"/>
        </g>
        <g class="module" stroke="red" stroke-opacity="0" cursor="pointer">
          <path fill="#b6b69f" stroke="none" d="M736 618.246h110v12.187H736z"/>
        </g>
        <g class="module" stroke="red" stroke-opacity="0" cursor="pointer">
          <path fill="#b6b69f" stroke="none" d="M736 598.52h110v11.726H736z"/>
        </g>
        <g class="module" stroke="red" stroke-opacity="0" cursor="pointer">
          <path fill="#b6b69f" stroke="none" d="M736 583.689h110v6.831H736z"/>
        </g>
        <g class="module" stroke="red" stroke-opacity="0" cursor="pointer">
          <path fill="#33a02c" stroke="none" d="M736 569.242h110v6.447H736z"/>
        </g>
        <g class="module" stroke="red" stroke-opacity="0" cursor="pointer">
          <path fill="#b6b69f" stroke="none" d="M736 554.961h110v6.28H736z"/>
        </g>
        <g class="module" stroke="red" stroke-opacity="0" cursor="pointer">
          <path fill="#b6b69f" stroke="none" d="M736 541.034h110v5.928H736z"/>
        </g>
        <g class="module" stroke="red" stroke-opacity="0" cursor="pointer">
          <path fill="#b6b69f" stroke="none" d="M736 527.615h110v5.419H736z"/>
          <path fill="#1f78b4" stroke="none" d="M736 527.603h110v.012H736z"/>
        </g>
        <g class="module" stroke="red" stroke-opacity="0" cursor="pointer">
          <path fill="#b6b69f" stroke="none" d="M736 515.043h110v4.559H736z"/>
        </g>
        <g class="module" stroke="red" stroke-opacity="0" cursor="pointer">
          <path fill="#b6b69f" stroke="none" d="M736 503.288h110v3.755H736z"/>
        </g>
        <g class="module" stroke="red" stroke-opacity="0" cursor="pointer">
          <path fill="#b6b69f" stroke="none" d="M736 491.687h110v3.601H736z"/>
        </g>
        <g class="module" stroke="red" stroke-opacity="0" cursor="pointer">
          <path fill="#b6b69f" stroke="none" d="M736 480.506h110v3.181H736z"/>
          <path fill="#1f78b4" stroke="none" d="M736 480.504h110v.002H736z"/>
        </g>
        <g class="module" stroke="red" stroke-opacity="0" cursor="pointer">
          <path fill="#b6b69f" stroke="none" d="M736 469.36h110v3.144H736z"/>
        </g>
        <g class="module" stroke="red" stroke-opacity="0" cursor="pointer">
          <path fill="#b6b69f" stroke="none" d="M736 458.43h110v2.93H736z"/>
        </g>
        <g class="module" stroke="red" stroke-opacity="0" cursor="pointer">
          <path fill="#b6b69f" stroke="none" d="M736 447.601h110v2.828H736z"/>
        </g>
        <g class="module" stroke="red" stroke-opacity="0" cursor="pointer">
          <path fill="#b6b69f" stroke="none" d="M736 301.072h110v114.529H736z"/>
        </g>
        <g class="module" stroke="red" stroke-opacity="0" cursor="pointer">
          <path fill="#b6b69f" stroke="none" d="M736 261.353h110v7.719H736z"/>
          <path fill="#1f78b4" stroke="none" d="M736 261.318h110v.035H736z"/>
        </g>
        <g class="module" stroke="red" stroke-opacity="0" cursor="pointer">
          <path fill="#b6b69f" stroke="none" d="M736 224.286h110v5.031H736z"/>
        </g>
        <path class="streamline" fill="url(#a)" stroke="url(#b)" vector-effect="non-scaling-stroke" paint-order="stroke" opacity=".7" d="M539 554.245c159.5 0 159.5-134.582 319-134.582v-.764c-159.5 0-159.5 134.645-319 134.645z" cursor="pointer" transform="translate(307 196)"/>
        <path class="streamline" fill="url(#a)" stroke="url(#b)" vector-effect="non-scaling-stroke" paint-order="stroke" opacity=".7" d="M539 555.046c159.5 0 159.5-64.429 319-64.429v-.64c-159.5 0-159.5 64.303-319 64.303z" cursor="pointer" transform="translate(307 196)"/>
      </g>
      <g class="networkRoot">
        <g class="networkName">
          <text class="name" x="913" y="770" text-anchor="middle" font-size="10" dy="3" cursor="default" transform="translate(307 196)">
            2007
          </text>
        </g>
        <g class="module" stroke="red" stroke-opacity="0" cursor="pointer">
          <path fill="#b6b69f" stroke="none" d="M1165 786.741h110V946h-110z"/>
        </g>
        <g class="module" stroke="red" stroke-opacity="0" cursor="pointer">
          <path fill="#b6b69f" stroke="none" d="M1165 731.569h110v47.172h-110z"/>
          <path fill="#1f78b4" stroke="none" d="M1165 731.499h110v.071h-110z"/>
          <path fill="#ff7f00" stroke="none" d="M1165 731.378h110v.121h-110z"/>
        </g>
        <g class="module" stroke="red" stroke-opacity="0" cursor="pointer">
          <path fill="#b6b69f" stroke="none" d="M1165 722.955h110v.422h-110z"/>
          <path fill="#e31a1c" stroke="none" d="M1165 696.997h110v25.958h-110z"/>
        </g>
        <g class="module" stroke="red" stroke-opacity="0" cursor="pointer">
          <path fill="#b6b69f" stroke="none" d="M1165 671.364h110v17.633h-110z"/>
        </g>
        <g class="module" stroke="red" stroke-opacity="0" cursor="pointer">
          <path fill="#b6b69f" stroke="none" d="M1165 648.586h110v14.778h-110z"/>
          <path fill="#ff7f00" stroke="none" d="M1165 648.521h110v.065h-110z"/>
        </g>
        <g class="module" stroke="red" stroke-opacity="0" cursor="pointer">
          <path fill="#b6b69f" stroke="none" d="M1165 626.887h110v13.634h-110z"/>
        </g>
        <g class="module" stroke="red" stroke-opacity="0" cursor="pointer">
          <path fill="#b6b69f" stroke="none" d="M1165 608.132h110v10.755h-110z"/>
        </g>
        <g class="module" stroke="red" stroke-opacity="0" cursor="pointer">
          <path fill="#b6b69f" stroke="none" d="M1165 591.805h110v8.327h-110z"/>
          <path fill="#1f78b4" stroke="none" d="M1165 591.797h110v.008h-110z"/>
          <path fill="#ff7f00" stroke="none" d="M1165 591.714h110v.083h-110z"/>
        </g>
        <g class="module" stroke="red" stroke-opacity="0" cursor="pointer">
          <path fill="#33a02c" stroke="none" d="M1165 575.878h110v7.836h-110z"/>
        </g>
        <g class="module" stroke="red" stroke-opacity="0" cursor="pointer">
          <path fill="#b6b69f" stroke="none" d="M1165 561.09h110v6.788h-110z"/>
        </g>
        <g class="module" stroke="red" stroke-opacity="0" cursor="pointer">
          <path fill="#b6b69f" stroke="none" d="M1165 546.668h110v6.422h-110z"/>
        </g>
        <g class="module" stroke="red" stroke-opacity="0" cursor="pointer">
          <path fill="#b6b69f" stroke="none" d="M1165 533.185h110v5.482h-110z"/>
          <path fill="#1f78b4" stroke="none" d="M1165 533.176h110v.009h-110z"/>
        </g>
        <g class="module" stroke="red" stroke-opacity="0" cursor="pointer">
          <path fill="#b6b69f" stroke="none" d="M1165 520.829h110v4.347h-110z"/>
        </g>
        <g class="module" stroke="red" stroke-opacity="0" cursor="pointer">
          <path fill="#b6b69f" stroke="none" d="M1165 508.49h110v4.339h-110z"/>
        </g>
        <g class="module" stroke="red" stroke-opacity="0" cursor="pointer">
          <path fill="#b6b69f" stroke="none" d="M1165 496.329h110v4.161h-110z"/>
        </g>
        <g class="module" stroke="red" stroke-opacity="0" cursor="pointer">
          <path fill="#b6b69f" stroke="none" d="M1165 484.723h110v3.606h-110z"/>
        </g>
        <g class="module" stroke="red" stroke-opacity="0" cursor="pointer">
          <path fill="#b6b69f" stroke="none" d="M1165 473.222h110v3.501h-110z"/>
        </g>
        <g class="module" stroke="red" stroke-opacity="0" cursor="pointer">
          <path fill="#b6b69f" stroke="none" d="M1165 461.826h110v3.397h-110z"/>
        </g>
        <g class="module" stroke="red" stroke-opacity="0" cursor="pointer">
          <path fill="#b6b69f" stroke="none" d="M1165 450.793h110v3.033h-110z"/>
          <path fill="#ff7f00" stroke="none" d="M1165 450.768h110v.025h-110z"/>
        </g>
        <g class="module" stroke="red" stroke-opacity="0" cursor="pointer">
          <path fill="#b6b69f" stroke="none" d="M1165 440.052h110v2.716h-110z"/>
        </g>
        <g class="module" stroke="red" stroke-opacity="0" cursor="pointer">
          <path fill="#b6b69f" stroke="none" d="M1165 277.613h110v130.439h-110z"/>
        </g>
        <g class="module" stroke="red" stroke-opacity="0" cursor="pointer">
          <path fill="#b6b69f" stroke="none" d="M1165 238.2h110v7.413h-110z"/>
        </g>
        <g class="moduleName" cursor="default">
          <text class="name" y="670.371" font-size="10" transform="translate(307 196)">
            <tspan x="988" dx="-3" dy="-1.45em">NATURE</tspan><tspan x="988" dx="-3" dy="1.2em">P NATL ACAD SCI USA</tspan><tspan x="988" dx="-3" dy="1.2em">SCIENCE</tspan><tspan x="988" dx="-3" dy="1.2em">J BIOL CHEM</tspan>
          </text>
        </g>
        <g class="moduleName" cursor="default">
          <text class="name" y="559.059" font-size="10" transform="translate(307 196)">
            <tspan x="988" dx="-3" dy="-.25em">NEW ENGL J MED</tspan><tspan x="988" dx="-3" dy="1.2em">CIRCULATION</tspan>
          </text>
        </g>
        <g class="moduleName" cursor="default">
          <text class="name" y="514.187" font-size="10" transform="translate(307 196)">
            <tspan x="988" dx="-3" dy="-.25em">J NEUROSCI</tspan><tspan x="988" dx="-3" dy="1.2em">NEURON</tspan>
          </text>
        </g>
        <g class="moduleName" cursor="default">
          <text class="name" y="484.181" font-size="10" transform="translate(307 196)">
            <tspan x="988" dx="-3" dy=".35em">J CLIN ONCOL</tspan>
          </text>
        </g>
        <g class="moduleName" cursor="default">
          <text class="name" y="459.943" font-size="10" transform="translate(307 196)">
            <tspan x="988" dx="-3" dy=".35em">P ROY SOC B-BIOL SCI</tspan>
          </text>
        </g>
        <g class="moduleName" cursor="default">
          <text class="name" y="437.704" font-size="10" transform="translate(307 196)">
            <tspan x="988" dx="-3" dy=".35em">J GEOPHYS RES</tspan>
          </text>
        </g>
        <g class="moduleName" cursor="default">
          <text class="name" y="417.509" font-size="10" transform="translate(307 196)">
            <tspan x="988" dx="-3" dy=".35em">J INFECT DIS</tspan>
          </text>
        </g>
        <g class="moduleName" cursor="default">
          <text class="name" y="399.923" font-size="10" transform="translate(307 196)">
            <tspan x="988" dx="-3" dy=".35em">BIOL PSYCHIAT</tspan>
          </text>
        </g>
        <g class="moduleName" cursor="default">
          <text class="name" y="383.796" font-size="10" transform="translate(307 196)">
            <tspan x="988" dx="-3" dy=".35em">NEUROLOGY</tspan>
          </text>
        </g>
        <g class="moduleName" cursor="default">
          <text class="name" y="368.484" font-size="10" transform="translate(307 196)">
            <tspan x="988" dx="-3" dy=".35em">PLANT PHYSIOL</tspan>
          </text>
        </g>
        <g class="moduleName" cursor="default">
          <text class="name" y="353.879" font-size="10" transform="translate(307 196)">
            <tspan x="988" dx="-3" dy=".35em">ENVIRON SCI TECHNOL</tspan>
          </text>
        </g>
        <g class="moduleName" cursor="default">
          <text class="name" y="339.922" font-size="10" transform="translate(307 196)">
            <tspan x="988" dx="-3" dy=".35em">GASTROENTEROLOGY</tspan>
          </text>
        </g>
        <g class="moduleName" cursor="default">
          <text class="name" y="327.003" font-size="10" transform="translate(307 196)">
            <tspan x="988" dx="-3" dy=".35em">APPL ENVIRON MICROB</tspan>
          </text>
        </g>
        <g class="moduleName" cursor="default">
          <text class="name" y="314.66" font-size="10" transform="translate(307 196)">
            <tspan x="988" dx="-3" dy=".35em">J AM SOC NEPHROL</tspan>
          </text>
        </g>
        <g class="moduleName" cursor="default">
          <text class="name" y="302.41" font-size="10" transform="translate(307 196)">
            <tspan x="988" dx="-3" dy=".35em">AM J RESP CRIT CARE</tspan>
          </text>
        </g>
        <g class="moduleName" cursor="default">
          <text class="name" y="290.526" font-size="10" transform="translate(307 196)">
            <tspan x="988" dx="-3" dy=".35em">HUM REPROD</tspan>
          </text>
        </g>
        <g class="moduleName" cursor="default">
          <text class="name" y="278.973" font-size="10" transform="translate(307 196)">
            <tspan x="988" dx="-3" dy=".35em">RADIOLOGY</tspan>
          </text>
        </g>
        <g class="moduleName" cursor="default">
          <text class="name" y="267.524" font-size="10" transform="translate(307 196)">
            <tspan x="988" dx="-3" dy=".35em">BIOMATERIALS</tspan>
          </text>
        </g>
        <g class="moduleName" cursor="default">
          <text class="name" y="256.297" font-size="10" transform="translate(307 196)">
            <tspan x="988" dx="-3" dy=".35em">PSYCHOL SCI</tspan>
          </text>
        </g>
        <g class="moduleName" cursor="default">
          <text class="name" y="245.41" font-size="10" transform="translate(307 196)">
            <tspan x="988" dx="-3" dy=".35em">ANN SURG</tspan>
          </text>
        </g>
        <g class="moduleName" cursor="default">
          <text class="name" y="146.832" font-size="10" transform="translate(307 196)">
            <tspan x="988" dx="-3" dy=".35em">Physical sciences</tspan>
          </text>
        </g>
        <g class="moduleName" cursor="default">
          <text class="name" y="45.906" font-size="10" transform="translate(307 196)">
            <tspan x="988" dx="-3" dy=".35em">Social sciences</tspan>
          </text>
        </g>
      </g>
    </g>
  </svg>
</svg>
