<?xml version="1.0" encoding="UTF-8"?>
<svg xmlns="http://www.w3.org/2000/svg" version="1.1" width="749px"
     height="1065px" viewBox="-0.5 -0.5 749 1065" color="#b4b4b4">
    <g>
        <path d="M 549.61 1062.23 L 324.77 1061.9 M 324.85 1012.53 L 549.68 1012.85 M 324.85 1012.53" fill="none"
              stroke="currentColor" stroke-width="1.8" stroke-linejoin="round" stroke-miterlimit="10"/>
        <path d="M 324 756.05 L 352.33 756.05 Q 403.67 756.05 436.06 795.89 L 520.67 899.99 L 549 899.99 M 549 1007.9 L 520.67 1007.9 Q 469.33 1007.9 436.94 968.05 L 352.33 863.95 L 324 863.95 M 549 1007.9"
              fill="none" stroke="currentColor" stroke-width="1.8" stroke-linejoin="round" stroke-miterlimit="10"/>
        <path d="M 324 899.99 L 352.33 899.99 L 436.94 795.89 Q 469.33 756.05 520.67 756.05 L 549 756.05 M 549 863.95 L 520.67 863.95 L 436.06 968.05 Q 403.67 1007.9 352.33 1007.9 L 324 1007.9 M 549 863.95"
              fill="none" stroke="currentColor" stroke-width="1.8" stroke-linejoin="round" stroke-miterlimit="10"/>

        <path d="M 216.34 219.82 L 244.49 173.09" fill="none" stroke="currentColor" stroke-width="1.8"
              stroke-miterlimit="10"/>
        <path d="M 282.98 158.3 L 323.53 166.51" fill="none" stroke="currentColor" stroke-width="1.8"
              stroke-miterlimit="10"/>
        <path d="M 227.72 248.99 L 267.28 255.6" fill="none" stroke="currentColor" stroke-width="1.8"
              stroke-miterlimit="10"/>
        <path d="M 624.31 257.38 L 589.5 252.02" fill="none" stroke="currentColor" stroke-width="1.8"
              stroke-miterlimit="10"/>
        <path d="M 591.19 143.6 L 543.84 125.4" fill="none" stroke="currentColor" stroke-width="1.8"
              stroke-miterlimit="10"/>
        <path d="M 679.5 171 L 643.5 160.78" fill="none" stroke="currentColor" stroke-width="1.8"
              stroke-miterlimit="10"/>
        <path d="M 233.83 138.33 L 203.59 118.09" fill="none" stroke="currentColor" stroke-width="1.8"
              stroke-miterlimit="10"/>
        <path d="M 554.08 219.02 L 531 144" fill="none" stroke="currentColor" stroke-width="1.8"
              stroke-miterlimit="10"/>

        <g transform="translate(-0.5 -0.5)scale(1.8000000000000003)">
            <text x="140" y="14" fill="currentColor" font-weight="700" font-size="12px" text-anchor="middle">
                Network 1
            </text>
        </g>
        <g transform="translate(-0.5 -0.5)scale(1.8000000000000003)">
            <text x="343" y="14" fill="currentColor" font-weight="700" font-size="12px" text-anchor="middle">
                Network 2
            </text>
        </g>

        <ellipse cx="184.5" cy="99" rx="27.000000000000004" ry="27.000000000000004" fill="#e1d5e7" stroke="#a680b8"
                 stroke-width="1.8"/>
        <g transform="translate(-0.5 -0.5)scale(1.8000000000000003)">
            <text x="103" y="58" fill="#000000" font-size="10px" text-anchor="middle">
                5
            </text>
        </g>
        <ellipse cx="256.5" cy="153" rx="27.000000000000004" ry="27.000000000000004" fill="#e1d5e7" stroke="#a680b8"
                 stroke-width="1.8"/>
        <g transform="translate(-0.5 -0.5)scale(1.8000000000000003)">
            <text x="143" y="88" fill="#000000" font-size="10px" text-anchor="middle">
                4
            </text>
        </g>
        <ellipse cx="202.5" cy="243" rx="27.000000000000004" ry="27.000000000000004" fill="#fff4c3" stroke="#ffd966"
                 stroke-width="1.8"/>
        <g transform="translate(-0.5 -0.5)scale(1.8000000000000003)">
            <text x="113" y="138" fill="#000000" font-size="10px" text-anchor="middle">
                1
            </text>
        </g>
        <ellipse cx="292.5" cy="261" rx="27.000000000000004" ry="27.000000000000004" fill="#fff4c3" stroke="#ffd966"
                 stroke-width="1.8"/>
        <g transform="translate(-0.5 -0.5)scale(1.8000000000000003)">
            <text x="163" y="148" fill="#000000" font-size="10px" text-anchor="middle">
                2
            </text>
        </g>
        <ellipse cx="346.5" cy="171" rx="27.000000000000004" ry="27.000000000000004" fill="#e1d5e7" stroke="#a680b8"
                 stroke-width="1.8"/>
        <g transform="translate(-0.5 -0.5)scale(1.8000000000000003)">
            <text x="193" y="98" fill="#000000" font-size="10px" text-anchor="middle">
                3
            </text>
        </g>
        <ellipse cx="522" cy="117" rx="27.000000000000004" ry="27.000000000000004" fill="#d5e8d4" stroke="#67ab9f"
                 stroke-width="1.8"/>
        <g transform="translate(-0.5 -0.5)scale(1.8000000000000003)">
            <text x="290" y="68" fill="#000000" font-size="10px" text-anchor="middle">
                5
            </text>
        </g>
        <ellipse cx="616.5" cy="153" rx="27.000000000000004" ry="27.000000000000004" fill="#f8cecc" stroke="#ea6b66"
                 stroke-width="1.8"/>
        <g transform="translate(-0.5 -0.5)scale(1.8000000000000003)">
            <text x="343" y="88" fill="#000000" font-size="10px" text-anchor="middle">
                4
            </text>
        </g>
        <ellipse cx="562.5" cy="243" rx="27.000000000000004" ry="27.000000000000004" fill="#d5e8d4" stroke="#67ab9f"
                 stroke-width="1.8"/>
        <g transform="translate(-0.5 -0.5)scale(1.8000000000000003)">
            <text x="313" y="138" fill="#000000" font-size="10px" text-anchor="middle">
                1
            </text>
        </g>
        <ellipse cx="652.5" cy="261" rx="27.000000000000004" ry="27.000000000000004" fill="#d5e8d4" stroke="#67ab9f"
                 stroke-width="1.8"/>
        <g transform="translate(-0.5 -0.5)scale(1.8000000000000003)">
            <text x="363" y="148" fill="#000000" font-size="10px" text-anchor="middle">
                2
            </text>
        </g>
        <ellipse cx="706.5" cy="171" rx="27.000000000000004" ry="27.000000000000004" fill="#f8cecc" stroke="#ea6b66"
                 stroke-width="1.8"/>
        <g transform="translate(-0.5 -0.5)scale(1.8000000000000003)">
            <text x="393" y="98" fill="#000000" font-size="10px" text-anchor="middle">
                3
            </text>
        </g>

        <path d="M 221.59 262.09 Q 288 324 387 324 Q 486 324 533.33 272.96" fill="none" stroke="currentColor"
              stroke-width="3.6" stroke-miterlimit="10" stroke-dasharray="3.6000000000000005 3.6000000000000005"/>
        <path d="M 540.67 265.04 L 536.16 280.5 L 533.33 272.96 L 525.6 270.71 Z" fill="currentColor"
              stroke="currentColor"
              stroke-width="3.6" stroke-miterlimit="10"/>

        <rect x="162" y="648" width="162" height="54" fill="#e1d5e7" stroke="#a680b8" stroke-width="1.8"/>
        <g transform="translate(-0.5 -0.5)scale(1.8000000000000003)">
            <text x="135" y="378" fill="#000000" font-size="10px"
                  text-anchor="middle">Node 5
            </text>
        </g>
        <rect x="162" y="540" width="162" height="54" fill="#e1d5e7" stroke="#a680b8" stroke-width="1.8"/>
        <g transform="translate(-0.5 -0.5)scale(1.8000000000000003)">
            <text x="135" y="318" fill="#000000" font-size="10px"
                  text-anchor="middle">Node 3
            </text>
        </g>
        <rect x="162" y="594" width="162" height="54" fill="#e1d5e7" stroke="#a680b8" stroke-width="1.8"/>
        <g transform="translate(-0.5 -0.5)scale(1.8000000000000003)">
            <text x="135" y="348" fill="#000000" font-size="10px"
                  text-anchor="middle">Node 4
            </text>
        </g>
        <rect x="549" y="648" width="162" height="54" fill="#d5e8d4" stroke="#67ab9f" stroke-width="1.8"/>
        <g transform="translate(-0.5 -0.5)scale(1.8000000000000003)">
            <text x="350" y="378" fill="#000000" font-size="10px"
                  text-anchor="middle">Node 5
            </text>
        </g>
        <rect x="549" y="540" width="162" height="54" fill="#d5e8d4" stroke="#67ab9f" stroke-width="1.8"/>
        <g transform="translate(-0.5 -0.5)scale(1.8000000000000003)">
            <text x="350" y="318" fill="#000000" font-size="10px"
                  text-anchor="middle">Node 1
            </text>
        </g>
        <rect x="549" y="594" width="162" height="54" fill="#d5e8d4" stroke="#67ab9f" stroke-width="1.8"/>
        <g transform="translate(-0.5 -0.5)scale(1.8000000000000003)">
            <text x="350" y="348" fill="#000000" font-size="10px"
                  text-anchor="middle">Node 2
            </text>
        </g>
        <rect x="162" y="450" width="162" height="54" fill="#fff4c3" stroke="#ffd966" stroke-width="1.8"/>
        <g transform="translate(-0.5 -0.5)scale(1.8000000000000003)">
            <text x="135" y="268" fill="#000000" font-size="10px"
                  text-anchor="middle">Node 2
            </text>
        </g>
        <rect x="162" y="396" width="162" height="54" fill="#fff4c3" stroke="#ffd966" stroke-width="1.8"/>
        <g transform="translate(-0.5 -0.5)scale(1.8000000000000003)">
            <text x="135" y="238" fill="#000000" font-size="10px"
                  text-anchor="middle">Node 1
            </text>
        </g>
        <rect x="549" y="450" width="162" height="54" fill="#f8cecc" stroke="#ea6b66" stroke-width="1.8"/>
        <g transform="translate(-0.5 -0.5)scale(1.8000000000000003)">
            <text x="350" y="268" fill="#000000" font-size="10px"
                  text-anchor="middle">Node 4
            </text>
        </g>
        <rect x="549" y="396" width="162" height="54" fill="#f8cecc" stroke="#ea6b66" stroke-width="1.8"/>
        <g transform="translate(-0.5 -0.5)scale(1.8000000000000003)">
            <text x="350" y="238" fill="#000000" font-size="10px"
                  text-anchor="middle">Node 3
            </text>
        </g>

        <path d="M 324 567 L 360 567 Q 378 567 389.35 553.03 L 483.65 436.97 Q 495 423 513 423 L 534.18 423" fill="none"
              stroke="currentColor" stroke-width="3.6" stroke-miterlimit="10"
              stroke-dasharray="3.6000000000000005 3.6000000000000005"/>
        <path d="M 544.98 423 L 530.58 430.2 L 534.18 423 L 530.58 415.8 Z" fill="currentColor" stroke="currentColor"
              stroke-width="3.6" stroke-miterlimit="10"/>
        <path d="M 324 423 L 360 423 Q 378 423 389.35 436.97 L 483.65 553.03 Q 495 567 513 567 L 534.18 567" fill="none"
              stroke="currentColor" stroke-width="3.6" stroke-miterlimit="10"
              stroke-dasharray="3.6000000000000005 3.6000000000000005"/>
        <path d="M 544.98 567 L 530.58 574.2 L 534.18 567 L 530.58 559.8 Z" fill="currentColor" stroke="currentColor"
              stroke-width="3.6" stroke-miterlimit="10"/>
        <path d="M 324 477 L 360 477 Q 378 477 389.35 490.97 L 483.65 607.03 Q 495 621 513 621 L 534.18 621" fill="none"
              stroke="currentColor" stroke-width="3.6" stroke-miterlimit="10"
              stroke-dasharray="3.6000000000000005 3.6000000000000005"/>
        <path d="M 544.98 621 L 530.58 628.2 L 534.18 621 L 530.58 613.8 Z" fill="currentColor" stroke="currentColor"
              stroke-width="3.6" stroke-miterlimit="10"/>
        <path d="M 324 621 L 360 621 Q 378 621 389.35 607.03 L 483.65 490.97 Q 495 477 513 477 L 534.18 477" fill="none"
              stroke="currentColor" stroke-width="3.6" stroke-miterlimit="10"
              stroke-dasharray="3.6000000000000005 3.6000000000000005"/>
        <path d="M 544.98 477 L 530.58 484.2 L 534.18 477 L 530.58 469.8 Z" fill="currentColor" stroke="currentColor"
              stroke-width="3.6" stroke-miterlimit="10"/>
        <path d="M 324 675 L 360 675 Q 378 675 396 675 L 477 675 Q 495 675 513 675 L 534.18 675" fill="none"
              stroke="currentColor" stroke-width="3.6" stroke-miterlimit="10"
              stroke-dasharray="3.6000000000000005 3.6000000000000005"/>
        <path d="M 544.98 675 L 530.58 682.2 L 534.18 675 L 530.58 667.8 Z" fill="currentColor" stroke="currentColor"
              stroke-width="3.6" stroke-miterlimit="10"/>

        <ellipse cx="40.5" cy="94.5" rx="40.50000000000001" ry="40.50000000000001" fill="#e6e6e6" stroke="#666666"
                 stroke-width="1.8"/>
        <g transform="translate(-0.5 -0.5)scale(1.8000000000000003)">
            <text x="23" y="56" fill="#333333" font-family="serif" font-size="10px" text-anchor="middle">
                I
            </text>
        </g>
        <ellipse cx="40.5" cy="436.5" rx="40.50000000000001" ry="40.50000000000001" fill="#e6e6e6" stroke="#666666"
                 stroke-width="1.8"/>
        <g transform="translate(-0.5 -0.5)scale(1.8000000000000003)">
            <text x="23" y="246" fill="#333333" font-family="serif" font-size="10px" text-anchor="middle">
                II
            </text>
        </g>
        <ellipse cx="40.5" cy="796.5" rx="40.50000000000001" ry="40.50000000000001" fill="#e6e6e6" stroke="#666666"
                 stroke-width="1.8"/>
        <g transform="translate(-0.5 -0.5)scale(1.8000000000000003)">
            <text x="23" y="446" fill="#333333" font-family="serif" font-size="10px" text-anchor="middle">
                III
            </text>
        </g>

        <rect x="162" y="900" width="162" height="162" fill="#e1d5e7" stroke="#a680b8" stroke-width="1.8"/>
        <g transform="translate(-0.5 -0.5)scale(1.8000000000000003)">
            <text x="135" y="548" fill="#000000" font-size="10px"
                  text-anchor="middle">Module 2
            </text>
        </g>
        <rect x="549" y="900" width="162" height="162" fill="#d5e8d4" stroke="#67ab9f" stroke-width="1.8"/>
        <g transform="translate(-0.5 -0.5)scale(1.8000000000000003)">
            <text x="350" y="548" fill="#000000" font-size="10px"
                  text-anchor="middle">Module 4
            </text>
        </g>
        <rect x="162" y="756" width="162" height="108" fill="#fff4c3" stroke="#ffd966" stroke-width="1.8"/>
        <g transform="translate(-0.5 -0.5)scale(1.8000000000000003)">
            <text x="135" y="453" fill="#000000" font-size="10px"
                  text-anchor="middle">Module 1
            </text>
        </g>
        <rect x="549" y="756" width="162" height="108" fill="#f8cecc" stroke="#ea6b66" stroke-width="1.8"/>
        <g transform="translate(-0.5 -0.5)scale(1.8000000000000003)">
            <text x="350" y="453" fill="#000000" font-size="10px"
                  text-anchor="middle">Module 3
            </text>
        </g>
    </g>
</svg>
